<svg xmlns="http://www.w3.org/2000/svg" viewBox="0 0 1000 750"><rect width="1000" height="750" fill="#f3d69c"/><circle cx="780" cy="150" r="105" fill="#fff0b4" opacity=".8"/><g fill="#245746"><circle cx="250" cy="270" r="65"/><circle cx="500" cy="220" r="68"/><circle cx="750" cy="285" r="64"/></g><g fill="#fffaf1"><path d="M170 360 Q250 300 330 360 L370 620 L140 620Z"/><path d="M415 325 Q500 270 585 325 L640 620 L360 620Z"/><path d="M675 365 Q750 310 825 365 L880 620 L625 620Z"/></g><g stroke="#e85e2d" stroke-width="18" stroke-linecap="round"><path d="M180 430 Q250 500 325 430"/><path d="M425 420 Q500 500 575 420"/><path d="M690 435 Q750 500 830 430"/></g><text x="45" y="80" fill="#245746" font-family="Arial" font-size="34" font-weight="800">CULTURAL MOMENTS</text><text x="45" y="120" fill="#665c53" font-family="Arial" font-size="16" letter-spacing="4">SAMPLE PHOTO</text></svg>